<svg viewBox="0 0 187 65" fill="none" xmlns="http://www.w3.org/2000/svg">
<path fill-rule="evenodd" clip-rule="evenodd" d="M185.783 36.896C185.383 37.1929 184.922 37.4982 184.442 37.8113C183.962 38.1248 183.44 38.4546 182.878 38.9147C182.315 39.1144 181.829 39.4113 181.239 39.6914C180.709 39.9722 180.196 40.2357 179.699 40.4831C179.186 40.7142 178.759 40.8875 178.42 41.0026C178.081 41.1182 177.82 41.1758 177.638 41.1758C177.499 41.1758 177.244 41.1305 177.054 41.0398C176.94 40.9493 176.702 40.8048 176.6 40.6069C176.381 40.3077 176.123 39.8647 176.073 39.4688C176.04 39.1117 176.156 38.8998 176.421 38.8998C176.537 38.8998 176.792 38.8588 176.967 38.7762C177.216 38.6938 177.53 38.5867 177.911 38.4546C178.399 38.3061 178.714 38.1452 179.128 37.9722C179.541 37.8481 179.972 37.6133 180.419 37.4155C180.882 37.2176 181.313 37.024 181.711 36.8341C182.108 36.7728 182.472 36.4592 182.803 36.2775C183.482 35.9477 183.821 35.7004 183.821 35.5353C183.821 35.3707 183.581 35.0985 183.101 34.7189C182.605 34.2736 182.05 33.8531 181.437 33.4572C180.825 33.012 180.221 32.6802 179.625 32.2945C179.095 31.9814 178.806 31.8244 178.557 31.8244C178.374 31.8244 178.325 31.7173 178.408 31.5029C178.424 31.4038 178.466 31.2969 178.532 31.224C178.697 31.066 178.672 30.9424 178.755 30.8101C178.954 30.5627 179.202 30.4549 179.5 30.1174C179.765 29.9196 180.071 29.8205 180.419 29.8205C180.866 29.8205 181.603 30.233 182.647 31.0575C183.176 31.4842 183.693 31.8947 184.181 32.4028C184.67 32.8283 185.154 33.2184 185.634 33.6799C186.544 34.5871 187 35.2056 187 35.5353C187 35.7993 186.594 36.2527 185.783 36.896ZM173.864 28.732C173.416 29.8043 172.92 31.0081 172.374 32.4617C171.863 33.6799 171.256 34.9995 170.71 36.3022C170.163 37.6053 169.625 38.8998 169.096 40.1862C168.566 41.4564 168.106 42.5574 167.717 43.4889C167.328 44.4209 167.018 45.1836 166.786 45.7773C166.604 46.2188 166.314 46.3049 165.917 46.2721C165.486 46.2388 165.106 46.1071 164.775 45.8762C164.443 45.6451 164.319 45.3402 164.402 44.961C164.617 44.1859 164.907 43.2706 165.271 42.2149C165.635 41.1596 166.074 39.9473 166.587 38.5782C167.084 37.2094 167.585 35.857 168.09 34.521C168.595 33.1851 169.096 31.8576 169.592 30.538C170.089 29.2188 170.527 28.0726 170.908 27.0993C171.289 26.1264 171.595 25.3099 171.827 24.65C171.993 24.3483 172.373 24.1571 173.063 24.2048C173.516 24.2543 174.029 24.444 174.509 24.7738C174.972 25.1368 175.155 25.5245 175.056 25.9365C174.708 26.7605 174.311 27.6601 173.864 28.732ZM157.722 41.3121C156.568 43.2102 155.46 45.0673 154.113 46.6295C152.86 48.2772 151.632 49.7002 150.429 50.8985C149.226 52.0968 148.223 52.9463 147.197 53.4448C146.545 53.7947 145.768 53.9317 144.866 53.8568C144.044 53.7819 143.086 53.5946 142.339 53.295C141.382 52.9954 140.63 52.5964 139.979 52.0968C139.328 51.6397 138.927 51.0986 138.777 50.7024C138.576 49.7505 138.6 48.6517 138.852 47.3036C139.102 45.9556 139.44 44.6075 139.867 43.2891C140.292 41.9113 140.705 40.6884 141.107 39.5897C141.561 38.492 141.758 37.7676 141.859 37.4177C140.856 38.2673 139.69 39.5405 138.363 41.2372C137.089 42.9352 135.719 44.7573 134.416 46.7044C133.112 48.6517 131.898 50.5498 130.77 52.3963C129.642 54.2441 128.803 55.742 128.252 56.89C128.001 57.3897 127.586 57.6517 126.808 57.6763C126.06 57.702 125.308 57.5768 124.53 57.3018C123.84 57.028 123.077 56.6653 122.5 56.2159C121.925 55.8028 121.711 55.2926 121.861 54.7929C122.209 53.6571 122.614 52.2266 123.206 50.5023C122.85 50.9856 122.293 51.5075 121.824 51.9095C120.095 53.583 118.302 54.6689 116.449 55.1674C115.546 55.4178 114.456 55.405 113.178 55.13C111.9 54.8562 110.672 54.4314 109.495 53.8568C108.349 53.2834 107.29 52.5836 106.412 51.7597C105.536 50.9359 105.072 50.1004 105.022 49.2508C104.871 47.953 104.959 46.4553 105.304 44.7573C105.611 43.0604 106.1 41.325 106.751 39.5521C107.403 37.7805 108.274 36.0322 109.081 34.3096C109.983 32.587 110.961 31.0272 112.013 29.6288C113.066 28.2316 114.156 27.0579 115.283 26.1088C116.411 25.1609 117.501 24.5618 118.554 24.3114C119.204 24.2119 119.781 24.3411 120.283 24.536C120.783 24.7865 121.51 25.1609 122.541 25.6595C122.713 25.2604 123.089 24.8256 123.591 24.0493C124.091 23.3752 124.418 23.0136 124.568 22.9633C124.817 22.8391 125.084 22.7716 125.369 22.7591C124.8 22.3976 124.06 21.9577 123.14 21.4655C120.333 20.3707 116.724 19.5182 112.314 19.2186C108.505 23.9123 105.122 29.8792 102.165 37.1181C100.711 40.7129 99.5588 44.034 98.7071 47.0789C97.8543 50.125 97.3034 52.9709 97.0532 55.6168C96.6514 60.7095 98.1809 63.2559 101.639 63.2559C99.7843 65.1527 97.4784 65.5026 94.7227 64.3043C91.8945 63.2161 90.1861 60.4099 89.6858 56.2159C89.6353 55.5676 89.6353 54.8678 89.6858 54.1189C89.7352 53.3699 89.8608 52.497 90.0617 51.4977C89.5096 52.3473 88.9457 53.0587 88.3701 53.6321C87.7933 54.2067 87.2295 54.6934 86.7747 55.0925C85.5756 55.9421 84.4479 56.1668 83.2956 55.8028C81.6417 55.0679 80.3883 54.3063 79.5366 53.1452C78.6838 52.1472 78.3339 50.6493 78.4842 48.6517C77.6314 49.9998 76.7293 51.273 75.7777 52.4712C75.3267 53.0703 74.8004 53.7198 74.199 54.4184C73.5975 55.1182 72.8951 55.8918 72.1369 56.7402C71.3423 57.5034 70.1887 57.8144 68.6838 57.7138C67.0312 57.564 65.6287 57.1404 64.4258 56.4406C63.1231 55.742 62.396 54.8186 62.2456 53.6695C62.0952 51.823 62.4711 49.1268 63.3733 45.5811C63.775 43.8843 64.2636 42.2484 64.8392 40.739C65.416 39.1028 66.0046 37.5429 66.6059 35.9947C67.2567 34.5473 67.8206 33.455 68.2975 32.3999C68.7733 31.452 69.2452 30.8025 69.6131 30.4526C70.3144 30.0032 71.2166 29.9283 72.3196 30.2279C72.9209 30.4204 73.459 30.4901 73.9359 30.7148C74.4948 30.9395 74.8498 31.177 75.2515 31.4262C76.1254 32.0757 76.2288 32.6503 75.9281 33.1488C75.6767 33.6485 75.3384 34.3226 74.9132 35.1709C74.4868 36.0204 73.9981 37.0187 73.4472 38.1667C72.8951 39.3158 72.3818 40.6642 71.906 41.8364C71.4291 43.1353 70.991 44.4577 70.5905 45.8058C70.1887 47.1538 69.8762 48.3404 69.7415 49.3631C69.4252 50.387 69.2866 51.1981 69.2372 51.7973C69.818 51.6475 70.8912 50.3251 72.5451 47.8278C73.4356 46.5805 74.286 45.1949 75.214 43.6712C76.2004 42.1489 77.1052 40.4883 78.1083 38.6909C79.1607 36.8443 80.3043 35.0211 81.1531 33.2237C82.1303 31.4262 83.0443 29.6288 83.8971 27.8314C84.3481 26.983 85.175 26.6834 86.3779 26.9327C86.9288 27.0333 87.4551 27.1947 87.9567 27.4194C88.4571 27.6441 88.9587 27.9566 89.4603 28.3557C90.3624 29.0555 90.663 29.8497 90.3624 30.4526C89.8209 31.8007 89.0339 33.455 88.3326 35.096C87.6301 36.8443 86.9041 38.8161 86.1523 41.0125C84.6981 45.2066 84.0966 48.4773 84.3482 50.8236C85.35 50.5744 86.6034 49.5725 88.107 47.4533C88.8588 46.4553 89.573 45.3822 90.2496 44.233C90.9262 43.085 91.6145 41.9113 92.317 40.7129C93.7196 38.2673 94.6969 36.4882 95.249 35.0211C96.4012 32.6802 97.7054 30.1284 98.9703 27.5318C100.298 24.9363 101.739 22.2144 103.293 19.3684C98.6813 19.7183 94.2716 20.5422 90.0617 21.8671C85.9969 23.2127 82.5438 24.9608 79.8373 27.3757C79.3357 27.8068 78.7603 27.8572 78.0332 27.5799C77.2309 26.9584 76.5295 26.2844 75.9281 25.471C75.1763 24.3863 74.6747 23.4875 74.4245 22.7386C74.1731 21.8903 74.2988 21.2911 74.8004 20.9412C78.0072 19.0443 82.518 17.4212 88.3326 16.0732C94.2963 14.7251 100.41 13.9012 106.676 13.6017C108.68 10.4071 110.559 7.86062 112.314 5.96252C113.166 5.39455 114.194 5.39455 115.515 5.96252C116.75 6.52301 117.802 7.28605 118.554 8.43405C119.256 9.58321 119.231 10.6563 118.479 11.6544C117.878 12.2044 117.226 12.903 116.524 13.7515C117.577 13.8521 118.592 13.9761 119.655 14.1259C120.546 14.2757 121.486 14.4758 122.388 14.7251C124.644 15.474 126.247 16.6478 127.2 18.2618C128.151 19.8927 128.638 21.4912 128.327 23.0381C128.298 23.3514 128.253 23.6426 128.192 23.9136C128.408 24.0729 128.617 24.2421 128.925 24.4238C129.442 24.9984 129.917 25.5975 130.244 26.2211C130.569 26.846 130.556 27.3757 130.206 27.6067C129.254 28.5055 128.365 29.5047 127.538 30.6024C126.711 31.7012 126.008 32.8001 125.432 33.8978C124.856 34.9965 124.442 36.0076 124.248 36.931C123.941 37.8554 123.891 38.5914 124.056 39.1403C123.841 39.4399 123.452 39.5651 122.876 39.5148C122.3 39.4656 121.711 39.2655 121.11 38.9156C120.508 38.5669 119.982 38.1046 119.531 37.53C119.08 36.9567 118.923 36.2697 118.923 35.4704C118.923 35.0211 118.917 34.5835 119.042 33.8978C119.167 33.2986 119.343 32.6877 119.597 32.0628C119.794 31.4392 120.044 30.84 120.32 30.2654C120.595 29.692 120.834 29.2051 121.035 28.8049C120.332 29.1045 119.556 29.8792 118.718 31.1267C117.851 32.3753 117.037 33.8357 116.363 35.508C115.483 37.1814 114.938 38.9284 114.269 40.7505C113.716 42.5737 113.394 44.2212 113.216 45.6934C113.066 47.1667 113.19 48.3147 113.592 49.1386C113.993 49.9623 114.795 50.2245 115.998 49.9249C117.25 49.6253 118.49 48.9267 119.776 47.8278C120.946 46.7303 122.187 45.4067 123.44 43.8585C124.693 42.3115 125.959 40.6007 127.237 38.7283C127.607 38.1858 127.987 37.6401 128.364 37.0954C129.172 35.1625 130.024 33.1855 130.92 31.1642C132.349 27.9437 133.802 24.8989 135.281 22.0271C136.759 19.1567 138.213 16.5857 139.641 14.3131C141.127 12.0418 142.385 10.3567 143.588 9.2579C144.239 8.60957 145.041 8.34751 145.994 8.50248C146.945 8.59664 147.823 8.89622 148.625 9.37017C149.426 9.84527 150.135 10.4316 150.429 11.1301C150.83 11.8299 150.854 12.4291 150.504 12.9574C149.852 13.2272 148.813 14.2511 147.385 15.9983C145.956 17.7465 144.377 19.9676 142.648 22.6638C140.919 25.3599 139.177 28.406 137.423 31.8007C135.669 35.1966 134.165 38.7167 132.913 42.3606C133.751 41.2126 134.591 40.0015 135.544 38.7283C136.495 37.4552 137.461 36.2841 138.438 35.0211C139.416 33.8229 140.393 32.7368 141.485 31.8292C142.348 30.7897 143.287 30.029 144.189 29.479C144.84 29.0799 145.605 28.9431 146.482 29.0671C147.359 29.1923 148.174 29.479 148.926 29.9283C149.677 30.3777 150.253 30.9277 150.655 31.576C151.055 32.2255 151.106 32.875 150.805 33.5233C150.354 34.5227 149.79 35.7209 149.114 37.1181C148.516 38.5554 147.785 39.9769 147.159 41.4994C146.532 43.023 146.031 44.4951 145.505 45.9181C145.028 47.3411 144.791 48.5936 144.791 49.6253C145.943 49.0261 147.096 48.1907 148.249 47.1164C149.401 46.0433 150.529 44.7946 151.632 43.3716C152.734 41.9488 153.787 40.4134 154.899 38.7658C155.828 37.1181 156.744 35.4704 157.646 33.8229C157.797 33.4741 158.072 33.2986 158.473 33.2986C158.874 33.2986 159.25 33.4109 159.601 33.7339C159.951 33.8603 160.252 34.1598 160.503 34.5343C160.753 34.9088 160.804 35.2715 160.653 35.6202C159.851 37.6296 158.874 39.4153 157.722 41.3121ZM69.3884 22.514C66.9322 26.7583 64.8519 31.177 63.1629 35.77C61.3443 40.3643 60.0664 44.8076 59.3146 49.101C58.7131 52.1472 58.4618 54.8432 58.5628 57.1896C58.6121 57.5898 58.6911 58.1011 58.7507 58.7248C58.896 59.3497 58.9387 60.1815 59.089 60.9342C59.4896 62.631 60.7922 63.5052 62.9983 63.5555C62.2958 64.1545 61.4688 64.4541 60.5175 64.4541C60.3166 64.5033 60.0534 64.5162 59.728 64.4916C59.4573 64.4659 58.988 64.4284 58.4876 64.3792C57.5349 64.3792 56.2815 63.7543 54.7287 62.507C53.1758 61.3086 52.0728 59.4117 51.4208 56.8151C51.3715 56.5658 51.3339 56.2908 51.3081 55.9912C51.2834 55.6917 51.2704 55.3921 51.2704 55.0925C51.2134 53.2458 51.3339 51.074 51.8657 48.5936C51.9228 47.6181 52.1295 46.6111 52.3782 45.5992C52.1602 45.9428 51.9419 46.1492 51.7227 46.4423C48.9061 50.2618 45.921 53.5197 42.8891 56.2159C39.8562 58.912 36.8296 61.0325 33.58 62.3197C30.3838 63.6923 27.1135 64.1791 23.7835 63.7802C21.7099 63.5801 19.834 62.8685 18.4562 61.6456C17.0772 60.4228 16.0246 58.85 15.2987 56.9274C14.5727 55.006 14.1463 52.7965 14.0206 50.2994C13.8961 47.8032 14.0336 45.1575 14.4342 42.3606C14.8852 38.9659 15.8109 35.4704 16.9567 31.8756C18.0909 28.2808 19.3829 24.7865 21.0836 21.3906C22.6404 17.9957 24.4952 14.8503 26.5754 11.954C28.6546 9.05894 30.8724 6.63657 33.2288 4.68945C35.5839 2.74218 38.0272 1.36948 40.5586 0.647846C43.0888 -0.22775 45.6332 -0.203168 48.1892 0.645115C49.7927 1.21854 50.9332 2.23085 51.6709 3.90298C52.2865 5.5764 52.7286 7.57283 52.7286 9.89443C52.7286 12.3119 52.3487 14.7508 51.7979 17.4961C51.2458 20.2426 50.5445 22.9633 49.6928 25.6595C48.84 28.3557 47.8885 30.9149 46.836 33.336C45.7836 35.7584 44.7557 37.8179 43.7537 39.5148C43.453 39.9641 42.8516 40.1642 41.9494 40.1139C41.0472 40.0648 40.1827 39.8894 39.3558 39.365C38.5288 38.9156 37.9638 38.3292 37.4762 37.6049C37.0498 36.8818 37.3159 36.0953 37.8898 35.2457C38.3902 34.5976 39.0669 33.4238 39.9624 31.7258C40.7712 30.029 41.6695 28.0935 42.5508 25.9215C43.453 23.7497 44.28 21.4783 45.0318 19.1775C45.7836 16.7355 46.3097 14.5507 46.6104 12.5531C46.9111 10.5568 46.9111 8.99842 46.6104 7.6529C46.3097 6.38357 45.558 5.61377 44.3552 5.51315C43.1523 5.46398 41.7862 6.14983 40.2579 7.57283C38.7285 8.99569 37.1627 10.8938 35.5592 13.2647C33.9546 15.6366 32.3888 18.3574 30.8607 21.428C29.3312 24.4987 27.9533 27.6571 26.7258 30.9796C25.6074 34.1482 24.4952 37.3428 23.7187 40.4883C22.9411 43.6338 22.5275 46.4553 22.4782 48.9513C22.4277 51.4485 22.8036 53.5081 23.6059 55.13C24.407 56.753 25.7603 57.6647 27.6656 57.8636C29.4193 58.1776 31.3001 57.7396 33.1911 56.89C35.12 56.0415 37.111 54.8935 38.9423 53.4448C40.8464 51.9974 42.7129 50.4221 44.6391 48.3896C46.372 46.4681 48.0635 44.5326 49.6176 42.5853C51.2134 40.638 52.5614 38.754 53.7901 36.931C54.868 35.3308 55.7626 34.0415 56.4739 32.6789C56.7374 31.9997 57.0049 31.3203 57.2847 30.6399C58.5875 27.4697 60.0406 24.3411 61.645 21.091C63.2485 17.9454 64.7896 15.2867 66.2685 13.1149C67.7463 10.943 69.1371 9.2579 70.441 8.05958C70.8415 7.81031 71.2174 7.6851 71.5687 7.6851C71.9692 7.6851 72.4578 7.78573 73.0346 7.98468C73.6102 8.2236 74.2492 8.55926 74.9516 9.10811L75.4027 9.35349C76.756 10.1321 77.4819 10.9313 77.6362 11.7293C77.6323 11.9797 77.4819 12.2793 77.1319 12.628C74.4747 15.0247 71.8941 18.3199 69.3884 22.514ZM10.5791 32.0966C10.4978 32.0966 10.3059 32.138 10.1731 32.2203C9.80921 32.303 9.48641 32.4101 9.08901 32.5419C8.70792 32.6903 8.30676 32.8472 7.9235 33.012C7.46247 33.177 7.14861 33.3668 6.58079 33.581C6.1339 33.7627 5.71168 33.952 5.31442 34.1499C4.91702 34.388 4.55266 34.5376 4.22164 34.7189C3.54271 35.0938 3.20346 35.3045 3.20346 35.4364C3.20346 35.6181 3.44328 35.8982 3.92366 36.2775C4.45021 36.7228 4.97488 37.1434 5.58758 37.5392C5.91846 37.7703 6.22899 37.9806 6.51874 38.17C6.80821 38.3599 7.09378 38.5373 7.37545 38.702C7.93822 39.032 8.30243 39.1966 8.56564 39.1966C8.61715 39.1966 8.66679 39.2957 8.61715 39.4936C8.58382 39.5925 8.53836 39.7001 8.48065 39.898C8.42235 39.9308 8.33548 40.0544 8.2199 40.1862C8.15438 40.4503 7.79767 40.7936 7.49969 40.879C7.21802 41.0769 6.92004 41.1758 6.60576 41.1758C6.17502 41.1758 5.42178 40.7638 4.34588 39.9388C3.81586 39.5102 3.30677 39.0815 2.81861 38.6524C2.33015 38.2237 1.85396 37.7785 1.42568 37.3165C0.463347 36.393 0 35.7664 0 35.4364C0 35.189 0.413708 34.7521 1.2417 34.1252C1.65526 33.8121 2.1023 33.4986 2.58268 33.1851C3.06262 32.872 3.58412 32.5504 4.14718 32.2203C4.74746 31.8906 5.25222 31.5855 5.77372 31.3049C6.316 31.0246 6.81254 30.7692 7.32581 30.538C8.28584 30.0599 8.973 29.8205 9.38699 29.8205C9.81729 29.8205 10.1731 30.0104 10.4548 30.3895C10.7362 30.8021 10.9019 31.224 10.9515 31.5276C11.0011 31.9744 10.877 32.0966 10.5791 32.0966Z" fill="white"/>
</svg>
